<mxfile host="app.diagrams.net" modified="2022-04-15T00:32:27.757Z" agent="5.0 (Macintosh; Intel Mac OS X 10_15_7) AppleWebKit/537.36 (KHTML, like Gecko) Chrome/100.0.4896.75 Safari/537.36" etag="8wvb5SBe65faqSp14OOP" version="17.4.2" type="github">
  <diagram id="3228e29e-7158-1315-38df-8450db1d8a1d" name="Page-1">
    <mxGraphModel dx="621" dy="-201" grid="0" gridSize="10" guides="1" tooltips="1" connect="1" arrows="1" fold="1" page="1" pageScale="1" pageWidth="600" pageHeight="300" background="#EFF1F3" math="0" shadow="0">
      <root>
        <mxCell id="0" />
        <mxCell id="1" parent="0" />
        <mxCell id="OGBjxk_xHfaE1EplLFuK-23" value="1" style="rounded=0;whiteSpace=wrap;html=1;fillColor=#9AC7BF;gradientColor=none;fontSize=18;" parent="1" vertex="1">
          <mxGeometry x="120" y="990" width="120" height="60" as="geometry" />
        </mxCell>
        <mxCell id="OGBjxk_xHfaE1EplLFuK-24" value="小白" style="rounded=0;whiteSpace=wrap;html=1;fillColor=#9AC7BF;gradientColor=none;fontSize=18;" parent="1" vertex="1">
          <mxGeometry x="240" y="990" width="120" height="60" as="geometry" />
        </mxCell>
        <mxCell id="OGBjxk_xHfaE1EplLFuK-25" value="&lt;span style=&quot;font-size: 18px&quot;&gt;1&lt;/span&gt;" style="rounded=0;whiteSpace=wrap;html=1;fillColor=#9AC7BF;gradientColor=none;fontSize=18;" parent="1" vertex="1">
          <mxGeometry x="360" y="990" width="120" height="60" as="geometry" />
        </mxCell>
        <mxCell id="OGBjxk_xHfaE1EplLFuK-26" value="2" style="rounded=0;whiteSpace=wrap;html=1;fillColor=#9AC7BF;gradientColor=none;fontSize=18;" parent="1" vertex="1">
          <mxGeometry x="120" y="1050" width="120" height="60" as="geometry" />
        </mxCell>
        <mxCell id="OGBjxk_xHfaE1EplLFuK-27" value="小黑" style="rounded=0;whiteSpace=wrap;html=1;fillColor=#9AC7BF;gradientColor=none;fontSize=18;" parent="1" vertex="1">
          <mxGeometry x="240" y="1050" width="120" height="60" as="geometry" />
        </mxCell>
        <mxCell id="OGBjxk_xHfaE1EplLFuK-28" value="&lt;span style=&quot;font-size: 18px&quot;&gt;2&lt;/span&gt;" style="rounded=0;whiteSpace=wrap;html=1;fillColor=#9AC7BF;gradientColor=none;fontSize=18;" parent="1" vertex="1">
          <mxGeometry x="360" y="1050" width="120" height="60" as="geometry" />
        </mxCell>
        <mxCell id="OGBjxk_xHfaE1EplLFuK-29" value="id" style="rounded=0;whiteSpace=wrap;html=1;fillColor=#4A919B;gradientColor=none;fontSize=18;" parent="1" vertex="1">
          <mxGeometry x="120" y="930" width="120" height="60" as="geometry" />
        </mxCell>
        <mxCell id="OGBjxk_xHfaE1EplLFuK-30" value="name" style="rounded=0;whiteSpace=wrap;html=1;fillColor=#4A919B;gradientColor=none;fontSize=18;" parent="1" vertex="1">
          <mxGeometry x="240" y="930" width="120" height="60" as="geometry" />
        </mxCell>
        <mxCell id="OGBjxk_xHfaE1EplLFuK-31" value="&lt;span style=&quot;font-size: 18px&quot;&gt;age&lt;/span&gt;" style="rounded=0;whiteSpace=wrap;html=1;fillColor=#4A919B;gradientColor=none;fontSize=18;" parent="1" vertex="1">
          <mxGeometry x="360" y="930" width="120" height="60" as="geometry" />
        </mxCell>
        <mxCell id="GKvqfsDIL1xfIGr8kIaB-1" value="3" style="rounded=0;whiteSpace=wrap;html=1;fillColor=#9AC7BF;gradientColor=none;fontSize=18;" parent="1" vertex="1">
          <mxGeometry x="120" y="1110" width="120" height="60" as="geometry" />
        </mxCell>
        <mxCell id="GKvqfsDIL1xfIGr8kIaB-2" value="小红" style="rounded=0;whiteSpace=wrap;html=1;fillColor=#9AC7BF;gradientColor=none;fontSize=18;" parent="1" vertex="1">
          <mxGeometry x="240" y="1110" width="120" height="60" as="geometry" />
        </mxCell>
        <mxCell id="GKvqfsDIL1xfIGr8kIaB-3" value="&lt;span style=&quot;font-size: 18px&quot;&gt;3&lt;/span&gt;" style="rounded=0;whiteSpace=wrap;html=1;fillColor=#9AC7BF;gradientColor=none;fontSize=18;" parent="1" vertex="1">
          <mxGeometry x="360" y="1110" width="120" height="60" as="geometry" />
        </mxCell>
      </root>
    </mxGraphModel>
  </diagram>
</mxfile>
